<svg width="87" height="14" viewBox="0 0 87 14" fill="none" xmlns="http://www.w3.org/2000/svg">
<path d="M14.912 9.92C15.52 9.312 15.86 8.36 15.932 7.064L16.172 2.6H17.252L17.012 7.112C16.956 8.168 16.768 9.008 16.448 9.632C16.136 10.256 15.616 10.792 14.888 11.24C14.248 10.784 13.804 10.224 13.556 9.56C13.308 8.888 13.116 7.98 12.98 6.836H12.932C12.868 8.028 12.712 8.916 12.464 9.5C12.224 10.084 11.744 10.664 11.024 11.24C10.296 10.792 9.772 10.256 9.452 9.632C9.14 9.008 8.956 8.168 8.9 7.112L8.66 2.6H9.74L9.98 7.064C10.052 8.36 10.392 9.312 11 9.92C11.392 9.584 11.684 9.084 11.876 8.42C12.068 7.748 12.248 6.688 12.416 5.24H13.496C13.72 6.488 13.924 7.456 14.108 8.144C14.292 8.832 14.432 9.268 14.528 9.452C14.632 9.636 14.76 9.792 14.912 9.92ZM21.8381 7.616V8.696C21.5341 8.464 21.1621 8.348 20.7221 8.348C20.3461 8.348 20.0541 8.424 19.8461 8.576C19.6381 8.72 19.5341 8.928 19.5341 9.2C19.5341 9.728 19.9261 9.992 20.7101 9.992H22.2941V7.7C22.2941 6.732 21.8221 6.248 20.8781 6.248H18.9581V5.24H20.9381C21.7141 5.24 22.3101 5.432 22.7261 5.816C23.1421 6.2 23.3501 6.752 23.3501 7.472V11H20.6741C19.9941 11 19.4541 10.848 19.0541 10.544C18.6541 10.24 18.4541 9.796 18.4541 9.212C18.4541 8.628 18.6661 8.184 19.0901 7.88C19.5141 7.576 20.0461 7.424 20.6861 7.424C21.0461 7.424 21.4301 7.488 21.8381 7.616ZM27.3452 11C26.5612 11 25.8892 10.736 25.3292 10.208C24.7692 9.68 24.4892 9.004 24.4892 8.18C24.4892 7.348 24.7692 6.652 25.3292 6.092C25.8972 5.524 26.5972 5.24 27.4292 5.24H30.2492V10.832C30.2492 11.192 30.2012 11.516 30.1052 11.804C30.0172 12.092 29.8892 12.336 29.7212 12.536C29.5532 12.736 29.4012 12.892 29.2652 13.004C29.1292 13.116 28.9652 13.232 28.7732 13.352C28.2772 13.608 27.6732 13.736 26.9612 13.736H25.6172V12.728H26.8532C27.5572 12.728 28.0572 12.64 28.3532 12.464C28.8972 12.16 29.1692 11.656 29.1692 10.952V6.248H27.4292C26.8612 6.248 26.4092 6.424 26.0732 6.776C25.7372 7.128 25.5692 7.596 25.5692 8.18C25.5692 8.74 25.7412 9.184 26.0852 9.512C26.4372 9.832 26.8572 9.992 27.3452 9.992C27.8732 9.992 28.3372 9.848 28.7372 9.56V10.64C28.3052 10.88 27.8412 11 27.3452 11ZM31.8073 5.24H33.8833C34.7713 5.24 35.4073 5.372 35.7913 5.636C36.1353 5.868 36.3513 6.148 36.4393 6.476C36.5353 6.796 36.5833 7.22 36.5833 7.748V11H35.5273V7.76C35.5273 7.616 35.5233 7.496 35.5153 7.4C35.5073 7.296 35.4793 7.168 35.4313 7.016C35.3833 6.856 35.3153 6.728 35.2273 6.632C35.1393 6.528 35.0113 6.44 34.8433 6.368C34.6753 6.288 34.4713 6.248 34.2313 6.248H32.8633V11H31.8073V5.24ZM40.8486 5.12C42.2086 5.176 42.8886 5.74 42.8886 6.812C42.8886 8.148 42.0126 8.816 40.2606 8.816H39.7686V7.892H40.3446C40.8806 7.892 41.2526 7.812 41.4606 7.652C41.6686 7.484 41.7726 7.208 41.7726 6.824C41.7726 6.576 41.6806 6.392 41.4966 6.272C41.3126 6.144 41.0766 6.08 40.7886 6.08C40.2206 6.08 39.7726 6.28 39.4446 6.68C39.1246 7.08 38.9646 7.56 38.9646 8.12C38.9646 8.712 39.1366 9.192 39.4806 9.56C39.8326 9.928 40.2886 10.112 40.8486 10.112C41.3526 10.112 41.7646 9.988 42.0846 9.74L42.8046 10.448C42.2526 10.896 41.6006 11.12 40.8486 11.12C39.9366 11.12 39.2086 10.852 38.6646 10.316C38.1206 9.78 37.8486 9.088 37.8486 8.24C37.8486 7.296 38.1166 6.532 38.6526 5.948C39.1886 5.364 39.9206 5.088 40.8486 5.12ZM43.9072 11V7.724C43.9072 6.804 44.0792 6.168 44.4232 5.816C44.5912 5.64 44.7952 5.508 45.0352 5.42C45.2752 5.332 45.4832 5.28 45.6592 5.264C45.8432 5.248 46.0912 5.24 46.4032 5.24H47.4592V6.248H46.1872C46.0272 6.248 45.9032 6.252 45.8152 6.26C45.7272 6.268 45.6232 6.296 45.5032 6.344C45.3832 6.392 45.2792 6.468 45.1912 6.572C45.0392 6.764 44.9632 7.148 44.9632 7.724V11H43.9072ZM54.619 2.6V3.656H52.495C51.687 3.656 51.283 3.984 51.283 4.64C51.283 4.992 51.459 5.292 51.811 5.54C52.171 5.78 52.655 6.012 53.263 6.236C53.535 6.34 53.767 6.448 53.959 6.56C54.151 6.664 54.343 6.804 54.535 6.98C54.727 7.156 54.871 7.384 54.967 7.664C55.063 7.936 55.111 8.252 55.111 8.612C55.111 9.012 55.027 9.372 54.859 9.692C54.691 10.004 54.475 10.252 54.211 10.436C53.947 10.612 53.675 10.748 53.395 10.844C53.123 10.932 52.855 10.98 52.591 10.988C52.479 10.996 52.319 11 52.111 11H50.239V9.944H52.075C52.619 9.944 53.063 9.832 53.407 9.608C53.751 9.376 53.923 9.04 53.923 8.6C53.923 8.384 53.875 8.196 53.779 8.036C53.683 7.868 53.543 7.724 53.359 7.604C53.183 7.484 52.999 7.38 52.807 7.292C52.623 7.204 52.399 7.112 52.135 7.016C52.063 6.992 52.007 6.972 51.967 6.956C50.711 6.476 50.083 5.692 50.083 4.604C50.083 3.932 50.299 3.432 50.731 3.104C51.163 2.768 51.727 2.6 52.423 2.6H54.619ZM57.8698 11H56.8138V6.248H55.8298L56.3098 5.24H57.8698V11ZM56.7658 4.04C56.6618 3.904 56.6098 3.756 56.6098 3.596C56.6098 3.436 56.6618 3.292 56.7658 3.164C56.8698 3.028 57.0298 2.96 57.2458 2.96C57.4618 2.96 57.6218 3.028 57.7258 3.164C57.8298 3.292 57.8818 3.436 57.8818 3.596C57.8818 3.756 57.8298 3.904 57.7258 4.04C57.6218 4.168 57.4618 4.232 57.2458 4.232C57.0298 4.232 56.8698 4.168 56.7658 4.04ZM59.4739 8.72V2.6H60.5539V8.72C60.5539 9.008 60.5859 9.244 60.6499 9.428C60.7219 9.604 60.8299 9.732 60.9739 9.812C61.1179 9.884 61.2579 9.932 61.3939 9.956C61.5299 9.98 61.7099 9.992 61.9339 9.992V11C61.0379 11 60.4019 10.828 60.0259 10.484C59.6579 10.14 59.4739 9.552 59.4739 8.72ZM64.7723 11.132C64.0843 10.484 63.5763 9.768 63.2483 8.984C62.9283 8.2 62.6083 6.952 62.2883 5.24H63.3923C63.7043 7.168 64.1643 8.628 64.7723 9.62C65.3803 8.628 65.8403 7.168 66.1523 5.24H67.2563C66.9363 6.952 66.6123 8.2 66.2843 8.984C65.9643 9.768 65.4603 10.484 64.7723 11.132ZM71.4787 7.616V8.696C71.1747 8.464 70.8027 8.348 70.3627 8.348C69.9867 8.348 69.6947 8.424 69.4867 8.576C69.2787 8.72 69.1747 8.928 69.1747 9.2C69.1747 9.728 69.5667 9.992 70.3507 9.992H71.9347V7.7C71.9347 6.732 71.4627 6.248 70.5187 6.248H68.5987V5.24H70.5787C71.3547 5.24 71.9507 5.432 72.3667 5.816C72.7827 6.2 72.9907 6.752 72.9907 7.472V11H70.3147C69.6347 11 69.0947 10.848 68.6947 10.544C68.2947 10.24 68.0947 9.796 68.0947 9.212C68.0947 8.628 68.3067 8.184 68.7307 7.88C69.1547 7.576 69.6867 7.424 70.3267 7.424C70.6867 7.424 71.0707 7.488 71.4787 7.616Z" fill="white"/>
<path d="M47.8516 10.904C47.7076 10.76 47.6356 10.584 47.6356 10.376C47.6356 10.168 47.7076 9.992 47.8516 9.848C47.9956 9.704 48.1716 9.632 48.3796 9.632C48.5876 9.632 48.7636 9.704 48.9076 9.848C49.0516 9.992 49.1236 10.168 49.1236 10.376C49.1236 10.584 49.0516 10.76 48.9076 10.904C48.7636 11.048 48.5876 11.12 48.3796 11.12C48.1716 11.12 47.9956 11.048 47.8516 10.904Z" fill="#FFC542"/>
<path d="M58.1338 3.5C58.1338 4.05228 57.6861 4.5 57.1338 4.5C56.5815 4.5 56.1338 4.05228 56.1338 3.5C56.1338 2.94772 56.5815 2.5 57.1338 2.5C57.6861 2.5 58.1338 2.94772 58.1338 3.5Z" fill="#FFC542"/>
<path d="M5.24414 9.47656C5.24414 9.6875 5.19336 9.86133 5.0918 9.99805C4.99414 10.1348 4.83008 10.2031 4.59961 10.2031C4.48633 10.2031 4.34766 10.1738 4.18359 10.1152C4.02344 10.0566 3.86523 9.98633 3.70898 9.9043C3.55664 9.82227 3.43359 9.74805 3.33984 9.68164L1.27734 8.16406C1.24219 8.13672 1.20703 8.11328 1.17188 8.09375C1.13672 8.07031 1.10156 8.04492 1.06641 8.01758C0.921875 7.91211 0.810547 7.76758 0.732422 7.58398C0.654297 7.39648 0.615234 7.21484 0.615234 7.03906C0.615234 6.86328 0.654297 6.68164 0.732422 6.49414C0.810547 6.30664 0.921875 6.16016 1.06641 6.05469C1.10156 6.02734 1.13672 6.00391 1.17188 5.98438C1.20703 5.96094 1.24219 5.93555 1.27734 5.9082L3.33984 4.39062C3.43359 4.32031 3.55664 4.24609 3.70898 4.16797C3.86523 4.08594 4.02344 4.01562 4.18359 3.95703C4.34766 3.89844 4.48633 3.86914 4.59961 3.86914C4.82617 3.86914 4.99023 3.9375 5.0918 4.07422C5.19336 4.21094 5.24414 4.38477 5.24414 4.5957C5.24414 4.81445 5.18555 4.99023 5.06836 5.12305C4.95117 5.25195 4.8125 5.37695 4.65234 5.49805L2.60156 7.0332L4.65234 8.57422C4.8125 8.69531 4.95117 8.82227 5.06836 8.95508C5.18555 9.08398 5.24414 9.25781 5.24414 9.47656ZM80.6309 2.85547C80.6309 2.96484 80.6035 3.10156 80.5488 3.26562C80.4941 3.42578 80.4297 3.58398 80.3555 3.74023C80.2812 3.89648 80.2148 4.02344 80.1562 4.12109C80.0352 4.375 79.9121 4.62695 79.7871 4.87695C79.6621 5.12695 79.5371 5.37891 79.4121 5.63281C79.2441 5.97656 79.082 6.32227 78.9258 6.66992C78.7695 7.01758 78.6172 7.36914 78.4688 7.72461L76.8164 11.7324V11.7383L76.7988 11.7734V11.7852C76.7402 11.918 76.6738 12.0664 76.5996 12.2305C76.5293 12.3945 76.4375 12.5371 76.3242 12.6582C76.2148 12.7793 76.0703 12.8398 75.8906 12.8398C75.6875 12.8398 75.4961 12.7676 75.3164 12.623C75.1367 12.4824 75.0469 12.3027 75.0469 12.084C75.0469 11.9512 75.0801 11.7969 75.1465 11.6211C75.2168 11.4492 75.2969 11.2773 75.3867 11.1055C75.4766 10.9375 75.5547 10.793 75.6211 10.6719C75.9336 10.1016 76.2461 9.5332 76.5586 8.9668C76.8711 8.39648 77.1543 7.81445 77.4082 7.2207C77.627 6.70508 77.8301 6.18359 78.0176 5.65625C78.2051 5.12891 78.3887 4.59961 78.5684 4.06836C78.6465 3.82617 78.7266 3.58594 78.8086 3.34766C78.8945 3.10937 78.9941 2.87695 79.1074 2.65039C79.1816 2.50586 79.2695 2.37891 79.3711 2.26953C79.4727 2.15625 79.6133 2.09961 79.793 2.09961C80 2.09961 80.1914 2.17187 80.3672 2.31641C80.543 2.45703 80.6309 2.63672 80.6309 2.85547ZM83.3262 9.68164C83.2324 9.74805 83.1074 9.82227 82.9512 9.9043C82.7988 9.98633 82.6426 10.0566 82.4824 10.1152C82.3223 10.1738 82.1836 10.2031 82.0664 10.2031C81.8398 10.2031 81.6738 10.1348 81.5684 9.99805C81.4668 9.86133 81.416 9.6875 81.416 9.47656C81.416 9.25781 81.4766 9.08398 81.5977 8.95508C81.7188 8.82227 81.8594 8.69531 82.0195 8.57422L84.0703 7.0332L82.0195 5.49805C81.8594 5.37695 81.7188 5.25195 81.5977 5.12305C81.4766 4.99023 81.416 4.81445 81.416 4.5957C81.416 4.38477 81.4668 4.21094 81.5684 4.07422C81.6738 3.9375 81.8398 3.86914 82.0664 3.86914C82.1836 3.86914 82.3223 3.89844 82.4824 3.95703C82.6426 4.01562 82.7988 4.08594 82.9512 4.16797C83.1074 4.24609 83.2324 4.32031 83.3262 4.39062L85.4883 5.97852C85.6719 6.11133 85.8105 6.26367 85.9043 6.43555C85.998 6.60742 86.0449 6.80859 86.0449 7.03906C86.0449 7.30859 85.9863 7.52539 85.8691 7.68945C85.7559 7.85352 85.5957 8.01172 85.3887 8.16406L83.3262 9.68164Z" fill="#FFC542"/>
</svg>
